<svg width="190" height="48" viewBox="0 0 190 48" fill="none" xmlns="http://www.w3.org/2000/svg">
<path fill-rule="evenodd" clip-rule="evenodd" d="M26.1001 27.1004L35.0001 21.9004V32.3004L26.1001 37.4004V27.1004Z" fill="url(#paint0_linear_108_369)"/>
<path fill-rule="evenodd" clip-rule="evenodd" d="M20.8 0L0 12V36L20.8 48L41.6 36V12L20.8 0ZM2.2 35V14.5L6.6 17V32.3L15.6 37.5V22.1L20.1 24.8V45.2L2.2 35ZM2.8 12.7L20.8 2.6L31.9 9L18.6 16.7L25.3 20.7L20.9 23.2L2.8 12.7ZM21.7 45.1V24.6L39.5 14.5V34.9L21.7 45.1ZM20.8 7.7L11.9 12.8L14.1 14.2L23.1 9L20.8 7.7Z" fill="url(#paint1_linear_108_369)"/>
<path d="M62.3788 32.0751C61.2165 32.0751 60.2252 31.8837 59.4047 31.5008C58.598 31.1043 57.9417 30.5642 57.4357 29.8805C56.9435 29.1968 56.5811 28.4243 56.3487 27.5628C56.1162 26.6877 56 25.7784 56 24.835V17.4102H58.8304V24.835C58.8304 25.4366 58.8851 26.0246 58.9945 26.5989C59.1176 27.1595 59.3159 27.6654 59.5893 28.1166C59.8628 28.5679 60.2252 28.9234 60.6764 29.1832C61.1276 29.443 61.6882 29.5729 62.3583 29.5729C63.0419 29.5729 63.6094 29.443 64.0606 29.1832C64.5255 28.9097 64.8879 28.5473 65.1477 28.0961C65.4212 27.6449 65.6194 27.139 65.7425 26.5783C65.8656 26.0041 65.9271 25.4229 65.9271 24.835V17.4102H68.737V24.835C68.737 25.8331 68.614 26.7698 68.3678 27.6449C68.1354 28.52 67.7594 29.2926 67.2398 29.9626C66.7338 30.6189 66.0775 31.1385 65.2707 31.5213C64.464 31.8905 63.5 32.0751 62.3788 32.0751Z" fill="#222222"/>
<path d="M71.588 31.9726V17.4102H76.8797C78.4658 17.4102 79.7922 17.7384 80.8587 18.3947C81.9253 19.0374 82.7252 19.9125 83.2585 21.02C83.7917 22.1139 84.0584 23.3309 84.0584 24.6709C84.0584 26.1476 83.7644 27.4329 83.1764 28.5268C82.5884 29.6207 81.7544 30.4685 80.6741 31.0701C79.6076 31.6718 78.3428 31.9726 76.8797 31.9726H71.588ZM81.2074 24.6709C81.2074 23.7274 81.0365 22.9002 80.6946 22.1891C80.3528 21.4644 79.8605 20.9038 79.2179 20.5073C78.5752 20.0971 77.7958 19.892 76.8797 19.892H74.4184V29.4908H76.8797C77.8095 29.4908 78.5957 29.2857 79.2384 28.8755C79.8811 28.4516 80.3665 27.8773 80.6946 27.1526C81.0365 26.4143 81.2074 25.587 81.2074 24.6709Z" fill="#222222"/>
<path d="M86.2698 31.9726V17.4102H92.4435C93.1135 17.4102 93.7288 17.5469 94.2894 17.8204C94.85 18.0939 95.3355 18.4631 95.7457 18.928C96.1695 19.3929 96.4977 19.9125 96.7302 20.4868C96.9626 21.0611 97.0788 21.649 97.0788 22.2507C97.0788 23.0711 96.8874 23.8505 96.5046 24.5888C96.1217 25.3272 95.5953 25.9289 94.9252 26.3938C94.2552 26.8587 93.4622 27.0911 92.546 27.0911H89.1003V31.9726H86.2698ZM89.1003 24.6093H92.3819C92.7238 24.6093 93.0314 24.5136 93.3049 24.3222C93.5784 24.1308 93.7972 23.8573 93.9613 23.5018C94.1253 23.1326 94.2074 22.7156 94.2074 22.2507C94.2074 21.7447 94.1117 21.314 93.9202 20.9585C93.7425 20.603 93.5032 20.3364 93.2024 20.1586C92.9152 19.9808 92.6007 19.892 92.2589 19.892H89.1003V24.6093Z" fill="#222222"/>
<path d="M103.415 31.9726V17.4102H106.246V29.4908H113.671V31.9726H103.415Z" fill="#222222"/>
<path d="M120.01 32.1777C119.135 32.1777 118.349 32.0341 117.651 31.747C116.954 31.4461 116.359 31.0359 115.867 30.5163C115.388 29.9967 115.019 29.4019 114.759 28.7319C114.499 28.0619 114.37 27.3577 114.37 26.6194C114.37 25.8673 114.499 25.1563 114.759 24.4863C115.019 23.8163 115.388 23.2215 115.867 22.7019C116.359 22.1823 116.954 21.7789 117.651 21.4918C118.349 21.191 119.135 21.0405 120.01 21.0405C120.885 21.0405 121.664 21.191 122.348 21.4918C123.045 21.7789 123.64 22.1823 124.133 22.7019C124.625 23.2215 124.994 23.8163 125.24 24.4863C125.5 25.1563 125.63 25.8673 125.63 26.6194C125.63 27.3577 125.5 28.0619 125.24 28.7319C124.994 29.4019 124.625 29.9967 124.133 30.5163C123.654 31.0359 123.066 31.4461 122.369 31.747C121.671 32.0341 120.885 32.1777 120.01 32.1777ZM117.2 26.6194C117.2 27.2484 117.323 27.809 117.569 28.3012C117.815 28.7798 118.15 29.1558 118.574 29.4293C118.998 29.7028 119.477 29.8395 120.01 29.8395C120.53 29.8395 121.001 29.7028 121.425 29.4293C121.849 29.1421 122.184 28.7593 122.43 28.2807C122.69 27.7885 122.82 27.2278 122.82 26.5989C122.82 25.9835 122.69 25.4298 122.43 24.9375C122.184 24.4453 121.849 24.0624 121.425 23.7889C121.001 23.5155 120.53 23.3787 120.01 23.3787C119.477 23.3787 118.998 23.5223 118.574 23.8094C118.15 24.0829 117.815 24.4658 117.569 24.958C117.323 25.4366 117.2 25.9904 117.2 26.6194Z" fill="#222222"/>
<path d="M131.69 32.0341C130.978 32.0341 130.322 31.8974 129.721 31.6239C129.133 31.3368 128.62 30.9402 128.182 30.4343C127.758 29.9284 127.43 29.3472 127.198 28.6909C126.965 28.0346 126.849 27.3372 126.849 26.5989C126.849 25.8195 126.972 25.0948 127.218 24.4248C127.464 23.7548 127.806 23.1668 128.244 22.6609C128.695 22.1413 129.221 21.7447 129.823 21.4713C130.438 21.1841 131.115 21.0405 131.854 21.0405C132.688 21.0405 133.419 21.232 134.048 21.6148C134.677 21.984 135.197 22.4831 135.607 23.1121V21.2251H138.007V31.4598C138.007 32.5264 137.747 33.4356 137.227 34.1877C136.721 34.9534 136.017 35.5345 135.115 35.9311C134.212 36.3413 133.187 36.5464 132.038 36.5464C130.876 36.5464 129.891 36.3481 129.085 35.9516C128.278 35.5687 127.587 35.0218 127.013 34.3108L128.51 32.8545C128.921 33.3604 129.433 33.757 130.049 34.0441C130.678 34.3313 131.341 34.4748 132.038 34.4748C132.626 34.4748 133.159 34.3655 133.638 34.1467C134.13 33.9416 134.52 33.6134 134.807 33.1622C135.108 32.7246 135.258 32.1572 135.258 31.4598V30.1061C134.903 30.7214 134.397 31.2 133.741 31.5419C133.098 31.87 132.414 32.0341 131.69 32.0341ZM132.612 29.8395C132.913 29.8395 133.2 29.7916 133.474 29.6959C133.747 29.6002 134 29.4703 134.233 29.3062C134.465 29.1421 134.67 28.9507 134.848 28.7319C135.026 28.4995 135.163 28.267 135.258 28.0346V25.4708C135.094 25.0469 134.862 24.6777 134.561 24.3632C134.274 24.0487 133.946 23.8094 133.576 23.6454C133.221 23.4676 132.845 23.3787 132.448 23.3787C132.025 23.3787 131.642 23.4676 131.3 23.6454C130.958 23.8231 130.664 24.0761 130.418 24.4042C130.172 24.7187 129.98 25.0743 129.844 25.4708C129.721 25.8536 129.659 26.257 129.659 26.6809C129.659 27.1185 129.734 27.5287 129.885 27.9115C130.035 28.2944 130.24 28.6294 130.5 28.9165C130.773 29.2037 131.088 29.4293 131.443 29.5934C131.813 29.7575 132.202 29.8395 132.612 29.8395Z" fill="#222222"/>
<path d="M140.484 31.9726V21.2251H143.233V31.9726H140.484ZM140.484 19.7279V17H143.233V19.7279H140.484Z" fill="#222222"/>
<path d="M149.67 32.1777C148.754 32.1777 147.879 32.0273 147.045 31.7264C146.211 31.4256 145.493 30.9812 144.892 30.3933L145.876 28.6089C146.519 29.1285 147.148 29.5113 147.763 29.7575C148.392 30.0036 148.994 30.1266 149.568 30.1266C150.101 30.1266 150.525 30.0309 150.84 29.8395C151.168 29.6481 151.332 29.3609 151.332 28.9781C151.332 28.7183 151.243 28.52 151.065 28.3833C150.887 28.2329 150.628 28.103 150.286 27.9936C149.958 27.8842 149.554 27.7611 149.076 27.6244C148.283 27.3646 147.619 27.1116 147.086 26.8655C146.553 26.6194 146.15 26.3117 145.876 25.9425C145.616 25.5597 145.486 25.0743 145.486 24.4863C145.486 23.7753 145.664 23.1668 146.02 22.6609C146.389 22.1413 146.895 21.7379 147.537 21.4508C148.194 21.1636 148.959 21.02 149.835 21.02C150.6 21.02 151.325 21.1431 152.009 21.3892C152.692 21.6217 153.315 22.0045 153.875 22.5378L152.768 24.2812C152.221 23.8573 151.701 23.5496 151.209 23.3582C150.717 23.1531 150.217 23.0506 149.712 23.0506C149.424 23.0506 149.151 23.0847 148.891 23.1531C148.645 23.2215 148.44 23.3377 148.276 23.5018C148.125 23.6522 148.05 23.871 148.05 24.1581C148.05 24.4179 148.119 24.623 148.255 24.7734C148.406 24.9102 148.624 25.0332 148.912 25.1426C149.212 25.252 149.575 25.3751 149.999 25.5118C150.86 25.7579 151.585 26.0109 152.173 26.2707C152.774 26.5305 153.226 26.8518 153.526 27.2347C153.827 27.6039 153.978 28.1166 153.978 28.773C153.978 29.8395 153.588 30.6736 152.809 31.2752C152.029 31.8769 150.983 32.1777 149.67 32.1777Z" fill="#222222"/>
<path d="M162.227 31.4188C161.995 31.5145 161.714 31.6239 161.386 31.747C161.058 31.87 160.703 31.9657 160.32 32.0341C159.951 32.1161 159.575 32.1572 159.192 32.1572C158.686 32.1572 158.221 32.0683 157.797 31.8905C157.373 31.7128 157.031 31.4325 156.771 31.0496C156.525 30.6531 156.402 30.1403 156.402 29.5113V23.3377H154.987V21.2251H156.402V17.7384H159.151V21.2251H161.407V23.3377H159.151V28.5884C159.164 28.9576 159.267 29.2242 159.458 29.3883C159.65 29.5524 159.889 29.6344 160.176 29.6344C160.463 29.6344 160.744 29.5865 161.017 29.4908C161.291 29.3951 161.509 29.3131 161.673 29.2447L162.227 31.4188Z" fill="#222222"/>
<path d="M163.659 31.9726V21.2251H166.407V31.9726H163.659ZM163.659 19.7279V17H166.407V19.7279H163.659Z" fill="#222222"/>
<path d="M173.891 32.1777C173.016 32.1777 172.23 32.0341 171.532 31.747C170.835 31.4461 170.24 31.0359 169.748 30.5163C169.256 29.9831 168.873 29.3814 168.599 28.7114C168.339 28.0414 168.21 27.3372 168.21 26.5989C168.21 25.587 168.435 24.664 168.886 23.83C169.351 22.9822 170.008 22.3054 170.855 21.7994C171.703 21.2935 172.708 21.0405 173.87 21.0405C175.033 21.0405 176.031 21.2935 176.865 21.7994C177.699 22.3054 178.321 22.9685 178.731 23.7889L176.045 24.6093C175.812 24.2128 175.504 23.912 175.122 23.7069C174.739 23.4881 174.315 23.3787 173.85 23.3787C173.33 23.3787 172.852 23.5155 172.414 23.7889C171.99 24.0487 171.655 24.4248 171.409 24.917C171.163 25.3956 171.04 25.9562 171.04 26.5989C171.04 27.2278 171.163 27.7885 171.409 28.2807C171.669 28.7593 172.011 29.1421 172.435 29.4293C172.859 29.7028 173.33 29.8395 173.85 29.8395C174.178 29.8395 174.486 29.7848 174.773 29.6754C175.074 29.566 175.34 29.4156 175.573 29.2242C175.805 29.0328 175.976 28.814 176.086 28.5679L178.772 29.3883C178.526 29.9215 178.164 30.4001 177.685 30.824C177.221 31.2479 176.667 31.5829 176.024 31.829C175.395 32.0615 174.684 32.1777 173.891 32.1777Z" fill="#222222"/>
<path d="M184.422 32.1777C183.506 32.1777 182.631 32.0273 181.797 31.7264C180.963 31.4256 180.245 30.9812 179.643 30.3933L180.628 28.6089C181.27 29.1285 181.899 29.5113 182.515 29.7575C183.144 30.0036 183.745 30.1266 184.32 30.1266C184.853 30.1266 185.277 30.0309 185.591 29.8395C185.919 29.6481 186.084 29.3609 186.084 28.9781C186.084 28.7183 185.995 28.52 185.817 28.3833C185.639 28.2329 185.379 28.103 185.037 27.9936C184.709 27.8842 184.306 27.7611 183.827 27.6244C183.034 27.3646 182.371 27.1116 181.838 26.8655C181.305 26.6194 180.901 26.3117 180.628 25.9425C180.368 25.5597 180.238 25.0743 180.238 24.4863C180.238 23.7753 180.416 23.1668 180.771 22.6609C181.14 22.1413 181.646 21.7379 182.289 21.4508C182.945 21.1636 183.711 21.02 184.586 21.02C185.352 21.02 186.077 21.1431 186.76 21.3892C187.444 21.6217 188.066 22.0045 188.627 22.5378L187.519 24.2812C186.972 23.8573 186.453 23.5496 185.96 23.3582C185.468 23.1531 184.969 23.0506 184.463 23.0506C184.176 23.0506 183.903 23.0847 183.643 23.1531C183.397 23.2215 183.192 23.3377 183.027 23.5018C182.877 23.6522 182.802 23.871 182.802 24.1581C182.802 24.4179 182.87 24.623 183.007 24.7734C183.157 24.9102 183.376 25.0332 183.663 25.1426C183.964 25.252 184.326 25.3751 184.75 25.5118C185.612 25.7579 186.336 26.0109 186.924 26.2707C187.526 26.5305 187.977 26.8518 188.278 27.2347C188.579 27.6039 188.729 28.1166 188.729 28.773C188.729 29.8395 188.34 30.6736 187.56 31.2752C186.781 31.8769 185.735 32.1777 184.422 32.1777Z" fill="#222222"/>
<defs>
<linearGradient id="paint0_linear_108_369" x1="35.0001" y1="29.6504" x2="26.2483" y2="29.6504" gradientUnits="userSpaceOnUse">
<stop stop-color="#0181EF"/>
<stop offset="1" stop-color="#00BCF9"/>
</linearGradient>
<linearGradient id="paint1_linear_108_369" x1="41.6" y1="24" x2="0.692553" y2="24" gradientUnits="userSpaceOnUse">
<stop stop-color="#0181EF"/>
<stop offset="1" stop-color="#00BCF9"/>
</linearGradient>
</defs>
</svg>
