<svg width="190" height="48" viewBox="0 0 190 48" fill="none" xmlns="http://www.w3.org/2000/svg">
<path fill-rule="evenodd" clip-rule="evenodd" d="M26.1001 27.1004L35.0001 21.9004V32.3004L26.1001 37.4004V27.1004Z" fill="white"/>
<path fill-rule="evenodd" clip-rule="evenodd" d="M20.8 0L0 12V36L20.8 48L41.6 36V12L20.8 0ZM2.2 35V14.5L6.6 17V32.3L15.6 37.5V22.1L20.1 24.8V45.2L2.2 35ZM2.8 12.7L20.8 2.6L31.9 9L18.6 16.7L25.3 20.7L20.9 23.2L2.8 12.7ZM21.7 45.1V24.6L39.5 14.5V34.9L21.7 45.1ZM20.8 7.7L11.9 12.8L14.1 14.2L23.1 9L20.8 7.7Z" fill="white"/>
<path d="M62.7645 29.3066C61.6022 29.3066 60.6109 29.1151 59.7905 28.7323C58.9837 28.3357 58.3274 27.7956 57.8215 27.112C57.3292 26.4283 56.9669 25.6557 56.7344 24.7943C56.502 23.9192 56.3857 23.0099 56.3857 22.0664V14.6417H59.2162V22.0664C59.2162 22.668 59.2709 23.256 59.3803 23.8303C59.5033 24.3909 59.7016 24.8968 59.9751 25.3481C60.2486 25.7993 60.6109 26.1548 61.0621 26.4146C61.5134 26.6744 62.074 26.8043 62.744 26.8043C63.4277 26.8043 63.9951 26.6744 64.4464 26.4146C64.9113 26.1411 65.2736 25.7788 65.5334 25.3276C65.8069 24.8763 66.0052 24.3704 66.1282 23.8098C66.2513 23.2355 66.3128 22.6544 66.3128 22.0664V14.6417H69.1228V22.0664C69.1228 23.0646 68.9997 24.0012 68.7536 24.8763C68.5211 25.7514 68.1451 26.524 67.6255 27.194C67.1196 27.8503 66.4632 28.3699 65.6565 28.7528C64.8497 29.122 63.8857 29.3066 62.7645 29.3066Z" fill="white"/>
<path d="M71.9737 29.204V14.6417H77.2654C78.8516 14.6417 80.1779 14.9698 81.2445 15.6261C82.311 16.2688 83.1109 17.1439 83.6442 18.2515C84.1775 19.3454 84.4441 20.5623 84.4441 21.9023C84.4441 23.3791 84.1501 24.6644 83.5622 25.7583C82.9742 26.8522 82.1401 27.6999 81.0599 28.3016C79.9933 28.9032 78.7285 29.204 77.2654 29.204H71.9737ZM81.5931 21.9023C81.5931 20.9588 81.4222 20.1316 81.0804 19.4206C80.7385 18.6959 80.2463 18.1353 79.6036 17.7387C78.961 17.3285 78.1816 17.1234 77.2654 17.1234H74.8042V26.7223H77.2654C78.1952 26.7223 78.9815 26.5172 79.6241 26.107C80.2668 25.6831 80.7522 25.1088 81.0804 24.3841C81.4222 23.6457 81.5931 22.8185 81.5931 21.9023Z" fill="white"/>
<path d="M86.6556 29.204V14.6417H92.8292C93.4992 14.6417 94.1145 14.7784 94.6752 15.0519C95.2358 15.3253 95.7212 15.6945 96.1314 16.1594C96.5553 16.6243 96.8835 17.1439 97.1159 17.7182C97.3484 18.2925 97.4646 18.8805 97.4646 19.4821C97.4646 20.3025 97.2732 21.0819 96.8903 21.8203C96.5074 22.5587 95.981 23.1603 95.311 23.6252C94.641 24.0901 93.8479 24.3226 92.9318 24.3226H89.486V29.204H86.6556ZM89.486 21.8408H92.7677C93.1095 21.8408 93.4172 21.7451 93.6907 21.5536C93.9641 21.3622 94.1829 21.0887 94.347 20.7332C94.5111 20.364 94.5931 19.947 94.5931 19.4821C94.5931 18.9762 94.4974 18.5455 94.306 18.1899C94.1282 17.8344 93.8889 17.5678 93.5881 17.39C93.301 17.2123 92.9865 17.1234 92.6446 17.1234H89.486V21.8408Z" fill="white"/>
<path d="M103.801 29.204V14.6417H106.632V26.7223H114.056V29.204H103.801Z" fill="white"/>
<path d="M120.396 29.4091C119.521 29.4091 118.734 29.2656 118.037 28.9784C117.34 28.6776 116.745 28.2674 116.253 27.7478C115.774 27.2282 115.405 26.6334 115.145 25.9634C114.885 25.2934 114.755 24.5892 114.755 23.8508C114.755 23.0988 114.885 22.3877 115.145 21.7177C115.405 21.0477 115.774 20.4529 116.253 19.9333C116.745 19.4137 117.34 19.0104 118.037 18.7232C118.734 18.4224 119.521 18.272 120.396 18.272C121.271 18.272 122.05 18.4224 122.734 18.7232C123.431 19.0104 124.026 19.4137 124.518 19.9333C125.011 20.4529 125.38 21.0477 125.626 21.7177C125.886 22.3877 126.016 23.0988 126.016 23.8508C126.016 24.5892 125.886 25.2934 125.626 25.9634C125.38 26.6334 125.011 27.2282 124.518 27.7478C124.04 28.2674 123.452 28.6776 122.754 28.9784C122.057 29.2656 121.271 29.4091 120.396 29.4091ZM117.586 23.8508C117.586 24.4798 117.709 25.0404 117.955 25.5327C118.201 26.0112 118.536 26.3873 118.96 26.6607C119.384 26.9342 119.862 27.0709 120.396 27.0709C120.915 27.0709 121.387 26.9342 121.811 26.6607C122.235 26.3736 122.57 25.9907 122.816 25.5122C123.076 25.0199 123.206 24.4593 123.206 23.8303C123.206 23.215 123.076 22.6612 122.816 22.169C122.57 21.6767 122.235 21.2939 121.811 21.0204C121.387 20.7469 120.915 20.6102 120.396 20.6102C119.862 20.6102 119.384 20.7537 118.96 21.0409C118.536 21.3144 118.201 21.6972 117.955 22.1895C117.709 22.668 117.586 23.2218 117.586 23.8508Z" fill="white"/>
<path d="M132.075 29.2656C131.364 29.2656 130.708 29.1288 130.106 28.8553C129.518 28.5682 129.006 28.1717 128.568 27.6657C128.144 27.1598 127.816 26.5787 127.583 25.9224C127.351 25.266 127.235 24.5687 127.235 23.8303C127.235 23.0509 127.358 22.3262 127.604 21.6562C127.85 20.9862 128.192 20.3982 128.629 19.8923C129.081 19.3727 129.607 18.9762 130.209 18.7027C130.824 18.4156 131.501 18.272 132.239 18.272C133.073 18.272 133.805 18.4634 134.434 18.8463C135.063 19.2155 135.583 19.7146 135.993 20.3435V18.4566H138.392V28.6913C138.392 29.7578 138.133 30.6671 137.613 31.4191C137.107 32.1849 136.403 32.766 135.501 33.1625C134.598 33.5727 133.573 33.7778 132.424 33.7778C131.262 33.7778 130.277 33.5796 129.47 33.183C128.664 32.8002 127.973 32.2532 127.399 31.5422L128.896 30.086C129.306 30.5919 129.819 30.9884 130.434 31.2756C131.063 31.5627 131.727 31.7063 132.424 31.7063C133.012 31.7063 133.545 31.5969 134.024 31.3781C134.516 31.173 134.906 30.8449 135.193 30.3936C135.494 29.9561 135.644 29.3886 135.644 28.6913V27.3376C135.289 27.9529 134.783 28.4315 134.126 28.7733C133.484 29.1015 132.8 29.2656 132.075 29.2656ZM132.998 27.0709C133.299 27.0709 133.586 27.0231 133.86 26.9274C134.133 26.8317 134.386 26.7018 134.619 26.5377C134.851 26.3736 135.056 26.1822 135.234 25.9634C135.412 25.7309 135.548 25.4985 135.644 25.266V22.7022C135.48 22.2783 135.248 21.9092 134.947 21.5947C134.66 21.2802 134.331 21.0409 133.962 20.8768C133.607 20.6991 133.231 20.6102 132.834 20.6102C132.41 20.6102 132.027 20.6991 131.686 20.8768C131.344 21.0546 131.05 21.3075 130.804 21.6357C130.557 21.9502 130.366 22.3057 130.229 22.7022C130.106 23.0851 130.045 23.4885 130.045 23.9123C130.045 24.3499 130.12 24.7601 130.27 25.143C130.421 25.5258 130.626 25.8608 130.886 26.148C131.159 26.4351 131.474 26.6607 131.829 26.8248C132.198 26.9889 132.588 27.0709 132.998 27.0709Z" fill="white"/>
<path d="M140.87 29.204V18.4566H143.618V29.204H140.87ZM140.87 16.9593V14.2314H143.618V16.9593H140.87Z" fill="white"/>
<path d="M150.056 29.4091C149.14 29.4091 148.265 29.2587 147.431 28.9579C146.597 28.6571 145.879 28.2127 145.277 27.6247L146.262 25.8403C146.904 26.3599 147.533 26.7428 148.149 26.9889C148.778 27.235 149.379 27.3581 149.954 27.3581C150.487 27.3581 150.911 27.2624 151.225 27.0709C151.553 26.8795 151.718 26.5924 151.718 26.2095C151.718 25.9497 151.629 25.7514 151.451 25.6147C151.273 25.4643 151.013 25.3344 150.672 25.225C150.343 25.1156 149.94 24.9926 149.461 24.8558C148.668 24.596 148.005 24.3431 147.472 24.0969C146.939 23.8508 146.535 23.5432 146.262 23.174C146.002 22.7911 145.872 22.3057 145.872 21.7177C145.872 21.0067 146.05 20.3982 146.405 19.8923C146.775 19.3727 147.28 18.9693 147.923 18.6822C148.579 18.3951 149.345 18.2515 150.22 18.2515C150.986 18.2515 151.711 18.3745 152.394 18.6207C153.078 18.8531 153.7 19.236 154.261 19.7692L153.153 21.5126C152.606 21.0887 152.087 20.7811 151.595 20.5897C151.102 20.3846 150.603 20.282 150.097 20.282C149.81 20.282 149.537 20.3162 149.277 20.3846C149.031 20.4529 148.826 20.5692 148.662 20.7332C148.511 20.8836 148.436 21.1024 148.436 21.3896C148.436 21.6494 148.504 21.8545 148.641 22.0049C148.791 22.1416 149.01 22.2647 149.297 22.3741C149.598 22.4835 149.961 22.6065 150.384 22.7433C151.246 22.9894 151.971 23.2423 152.559 23.5021C153.16 23.7619 153.611 24.0833 153.912 24.4661C154.213 24.8353 154.363 25.3481 154.363 26.0044C154.363 27.0709 153.974 27.905 153.194 28.5067C152.415 29.1083 151.369 29.4091 150.056 29.4091Z" fill="white"/>
<path d="M162.613 28.6502C162.381 28.746 162.1 28.8553 161.772 28.9784C161.444 29.1015 161.088 29.1972 160.706 29.2656C160.336 29.3476 159.96 29.3886 159.577 29.3886C159.072 29.3886 158.607 29.2997 158.183 29.122C157.759 28.9442 157.417 28.6639 157.157 28.2811C156.911 27.8845 156.788 27.3718 156.788 26.7428V20.5692H155.373V18.4566H156.788V14.9698H159.536V18.4566H161.793V20.5692H159.536V25.8198C159.55 26.189 159.653 26.4556 159.844 26.6197C160.035 26.7838 160.275 26.8658 160.562 26.8658C160.849 26.8658 161.129 26.818 161.403 26.7223C161.676 26.6265 161.895 26.5445 162.059 26.4761L162.613 28.6502Z" fill="white"/>
<path d="M164.044 29.204V18.4566H166.793V29.204H164.044ZM164.044 16.9593V14.2314H166.793V16.9593H164.044Z" fill="white"/>
<path d="M174.277 29.4091C173.402 29.4091 172.615 29.2656 171.918 28.9784C171.221 28.6776 170.626 28.2674 170.134 27.7478C169.641 27.2145 169.258 26.6129 168.985 25.9429C168.725 25.2729 168.595 24.5687 168.595 23.8303C168.595 22.8185 168.821 21.8955 169.272 21.0614C169.737 20.2136 170.393 19.5368 171.241 19.0309C172.089 18.525 173.094 18.272 174.256 18.272C175.418 18.272 176.417 18.525 177.251 19.0309C178.085 19.5368 178.707 20.2 179.117 21.0204L176.43 21.8408C176.198 21.4443 175.89 21.1434 175.507 20.9383C175.124 20.7196 174.701 20.6102 174.236 20.6102C173.716 20.6102 173.238 20.7469 172.8 21.0204C172.376 21.2802 172.041 21.6562 171.795 22.1485C171.549 22.627 171.426 23.1876 171.426 23.8303C171.426 24.4593 171.549 25.0199 171.795 25.5122C172.055 25.9907 172.397 26.3736 172.82 26.6607C173.244 26.9342 173.716 27.0709 174.236 27.0709C174.564 27.0709 174.872 27.0162 175.159 26.9069C175.459 26.7975 175.726 26.6471 175.959 26.4556C176.191 26.2642 176.362 26.0454 176.471 25.7993L179.158 26.6197C178.912 27.153 178.55 27.6316 178.071 28.0554C177.606 28.4793 177.052 28.8143 176.41 29.0604C175.781 29.2929 175.07 29.4091 174.277 29.4091Z" fill="white"/>
<path d="M184.808 29.4091C183.892 29.4091 183.017 29.2587 182.183 28.9579C181.348 28.6571 180.631 28.2127 180.029 27.6247L181.013 25.8403C181.656 26.3599 182.285 26.7428 182.9 26.9889C183.529 27.235 184.131 27.3581 184.705 27.3581C185.239 27.3581 185.663 27.2624 185.977 27.0709C186.305 26.8795 186.469 26.5924 186.469 26.2095C186.469 25.9497 186.38 25.7514 186.203 25.6147C186.025 25.4643 185.765 25.3344 185.423 25.225C185.095 25.1156 184.692 24.9926 184.213 24.8558C183.42 24.596 182.757 24.3431 182.224 24.0969C181.69 23.8508 181.287 23.5432 181.013 23.174C180.754 22.7911 180.624 22.3057 180.624 21.7177C180.624 21.0067 180.802 20.3982 181.157 19.8923C181.526 19.3727 182.032 18.9693 182.675 18.6822C183.331 18.3951 184.097 18.2515 184.972 18.2515C185.738 18.2515 186.462 18.3745 187.146 18.6207C187.83 18.8531 188.452 19.236 189.013 19.7692L187.905 21.5126C187.358 21.0887 186.838 20.7811 186.346 20.5897C185.854 20.3846 185.355 20.282 184.849 20.282C184.562 20.282 184.288 20.3162 184.029 20.3846C183.782 20.4529 183.577 20.5692 183.413 20.7332C183.263 20.8836 183.188 21.1024 183.188 21.3896C183.188 21.6494 183.256 21.8545 183.393 22.0049C183.543 22.1416 183.762 22.2647 184.049 22.3741C184.35 22.4835 184.712 22.6065 185.136 22.7433C185.998 22.9894 186.722 23.2423 187.31 23.5021C187.912 23.7619 188.363 24.0833 188.664 24.4661C188.965 24.8353 189.115 25.3481 189.115 26.0044C189.115 27.0709 188.725 27.905 187.946 28.5067C187.167 29.1083 186.121 29.4091 184.808 29.4091Z" fill="white"/>
</svg>
