<svg width="84" height="18" viewBox="0 0 84 18" fill="none" xmlns="http://www.w3.org/2000/svg">
<g id="logo.svg" clip-path="url(#clip0_240_364)">
<g id="Clip path group">
<mask id="mask0_240_364" style="mask-type:luminance" maskUnits="userSpaceOnUse" x="0" y="0" width="84" height="18">
<g id="clip0_514_485">
<path id="Vector" d="M84 0H0V17.4653H84V0Z" fill="white"/>
</g>
</mask>
<g mask="url(#mask0_240_364)">
<g id="Group">
<path id="Vector_2" d="M29.7889 8.73376C28.7604 9.91167 25.7577 12.8142 24.3849 13.5201C23.858 13.7924 23.2502 14.0263 22.6913 13.8368C20.2816 13.0139 21.9667 10.0004 22.872 8.51794C23.5924 7.33795 24.5869 6.38794 25.422 5.29673C26.2231 4.2499 27.258 2.06749 25.6961 1.16386C25.167 0.857279 24.4933 0.944007 23.9515 1.22639C23.4117 1.50877 22.9761 1.96462 22.5489 2.41038C19.8629 5.20798 17.0982 7.92288 14.2571 10.5531C13.779 10.9969 13.2966 11.4366 12.8142 11.8763C12.5847 12.084 11.7921 13.0522 11.433 12.8384C11.3289 12.7758 11.2948 12.6286 11.3246 12.5076C11.4117 12.1526 11.807 11.8117 12.0237 11.5374C12.3085 11.1783 12.5869 10.8153 12.861 10.4482C13.4092 9.71398 13.9383 8.96364 14.4463 8.19922C15.462 6.67032 16.397 5.08293 17.2449 3.44511C17.3044 3.33014 17.3639 3.21517 17.4213 3.1002C17.7634 2.42652 18.097 1.6298 17.808 0.927872C17.5296 0.254187 16.7391 -0.0645011 16.0379 0.0141626C15.3367 0.0928265 14.7055 0.488161 14.1254 0.90367C10.5107 3.48948 7.81619 7.21693 4.48203 10.1779C4.22065 10.4099 3.87215 10.6559 3.51302 10.6579C2.85213 10.662 2.83726 9.88947 2.97539 9.40543C3.75314 6.70461 6.5433 5.1979 7.90544 2.75932C8.01169 2.5677 8.11156 2.366 8.12644 2.14413C8.16256 1.59147 7.64618 1.14571 7.1213 1.03881C6.18204 0.847191 5.23004 1.43414 4.64778 2.22078C4.1399 2.90858 3.87215 3.7174 3.56827 4.51412C2.76501 6.62393 1.72374 8.62281 0.911988 10.7286C0.414734 12.0739 0.0492303 13.5 0.01523 14.9482C0.00247982 15.517 -0.0591459 16.4448 0.229857 16.949C0.503985 17.4291 1.13299 17.5784 1.61112 17.3766C2.29326 17.0903 2.74376 16.3157 3.16876 15.7308C3.6639 15.0531 4.1484 14.3672 4.63503 13.6814C5.60617 12.3079 6.57305 10.9302 7.58881 9.59297C9.44609 7.15037 11.501 4.82676 13.9851 3.05582C14.0978 2.97514 14.238 2.89245 14.3634 2.95094C14.5568 3.03969 14.5036 3.33417 14.4186 3.53386C12.657 7.62034 9.91574 11.2227 8.43035 15.4261C8.24119 15.9627 8.08606 16.6122 8.41971 17.0661C8.73633 17.4997 9.38022 17.54 9.85411 17.3061C10.3279 17.0741 10.6722 16.6344 11.0037 16.2148C14.4186 11.8823 18.2139 7.87246 22.3259 4.24788C22.5532 4.0482 22.9102 3.85053 23.1164 4.07442C21.4673 7.80388 18.4732 10.9484 17.7613 14.9824C17.638 15.6844 17.6189 16.4993 18.1013 17.0095C18.4051 17.3303 18.811 17.4392 19.2424 17.423C19.7248 17.4029 20.2412 17.2253 20.681 17.0095C23.331 15.7086 27.683 12.1122 29.7868 9.99434V8.72968L29.7889 8.73376Z" fill="#F4F5F7"/>
<path id="Vector_3" d="M46.3868 9.7261V1.2002H39.064L29.7861 10.0993V13.3305H42.1877V17.4654H46.3846V13.3305H47.3048L50.6665 9.7241H46.3846L46.3868 9.7261ZM35.8892 9.7261L42.141 3.75172V9.7261H35.8892Z" fill="#F4F5F7"/>
<path id="Vector_4" d="M57.6203 9.12904L65.5211 1.16589H59.1417L50.8435 9.72411H56.9806L49.7598 17.4654H55.9691L63.9209 9.06051L57.6203 9.12904Z" fill="#F4F5F7"/>
<path id="Vector_5" d="M82.1599 7.75959C80.9338 6.91647 79.0107 6.49492 76.3926 6.49492H72.251L77.1682 1.20227H71.9173L64.7964 8.40909C63.9188 9.29658 63.3981 10.4604 63.3896 11.6766C63.3896 11.6868 63.3896 11.6988 63.3896 11.7089V11.8178C63.3896 15.5836 65.9715 17.4675 71.1354 17.4675H76.3905C81.4608 17.4675 83.9977 15.5836 83.9977 11.8178V11.7089C83.9977 9.91984 83.3864 8.6047 82.1599 7.76161V7.75959ZM79.2423 11.7513C79.2423 13.0321 78.3073 13.6715 76.4393 13.6715H70.9781C69.0932 13.6715 68.1518 13.0321 68.1518 11.7513V11.6423C68.1518 10.42 69.0932 9.81089 70.9781 9.81089H76.4393C78.3094 9.81089 79.2423 10.422 79.2423 11.6423V11.7513Z" fill="#F4F5F7"/>
<path id="Vector_6" d="M81.1844 4.14285C82.2429 4.14285 83.1011 3.3283 83.1011 2.3235C83.1011 1.3187 82.2429 0.50415 81.1844 0.50415C80.1257 0.50415 79.2676 1.3187 79.2676 2.3235C79.2676 3.3283 80.1257 4.14285 81.1844 4.14285Z" fill="#F4F5F7"/>
</g>
</g>
</g>
</g>
<defs>
<clipPath id="clip0_240_364">
<rect width="84" height="17.4653" fill="white"/>
</clipPath>
</defs>
</svg>
