<svg width="39" height="42" viewBox="0 0 39 42" fill="none" xmlns="http://www.w3.org/2000/svg">
<g id="g84">
<g id="g82">
<path id="path72" d="M34.6405 4.02495C33.6144 3.1069 29.5102 0.0827258 20.2756 0.0287226C20.2756 0.0287226 9.421 -0.619322 4.12869 4.24096C1.15852 7.21113 0.132455 11.4774 0.0244483 16.8237C-0.083558 22.17 -0.245554 32.1606 9.42101 34.9148V39.073C9.42101 39.073 9.367 40.7471 10.4471 41.0711C11.7971 41.5031 12.5532 40.2071 13.8493 38.857C14.5513 38.1009 15.5233 37.0209 16.2254 36.1568C22.8138 36.6968 27.8901 35.4548 28.4841 35.2388C29.8342 34.8067 37.3406 33.8347 38.5827 23.8441C39.8788 13.4755 38.0427 6.94112 34.6405 4.02495ZM35.7745 23.0341C34.7485 31.4045 28.6461 31.9446 27.5121 32.2686C27.026 32.4306 22.5978 33.5107 16.9814 33.1866C16.9814 33.1866 12.8232 38.2089 11.4731 39.559C11.2571 39.775 11.0411 39.829 10.8791 39.829C10.6631 39.775 10.6091 39.505 10.6091 39.127C10.6091 38.587 10.6631 32.2146 10.6631 32.2146C2.5086 29.9465 2.99462 21.414 3.04863 16.9317C3.15663 12.4494 3.96669 8.83122 6.45083 6.34708C10.9331 2.29684 20.1676 2.89088 20.1676 2.89088C27.9441 2.94489 31.6703 5.26702 32.5343 6.07706C35.3425 8.56121 36.8006 14.4476 35.7745 23.0341Z" fill="#A200FF"/>
<path id="path74" d="M24.0561 16.608C23.9481 14.5558 22.922 13.4757 20.9238 13.3676" stroke="#A200FF" stroke-width="0.827176" stroke-linecap="round" stroke-linejoin="round"/>
<path id="path76" d="M26.7553 17.4717C26.8093 15.5816 26.2153 13.9614 25.0812 12.7193C23.8931 11.4232 22.2729 10.7211 20.2207 10.5591" stroke="#A200FF" stroke-width="0.827176" stroke-linecap="round" stroke-linejoin="round"/>
<path id="path78" d="M29.4563 18.5521C29.4563 15.2578 28.4302 12.6656 26.486 10.7754C24.5418 8.8852 22.1116 7.91312 19.1953 7.91312" stroke="#A200FF" stroke-width="0.827176" stroke-linecap="round" stroke-linejoin="round"/>
<path id="path80" d="M21.0318 23.5739C21.0318 23.5739 21.7878 23.6278 22.1658 23.1418L22.9219 22.1698C23.2999 21.6837 24.164 21.3597 25.082 21.8457C25.568 22.1158 26.4321 22.6558 26.9721 23.0878C27.5661 23.5198 28.7542 24.4919 28.7542 24.4919C29.3482 24.9779 29.4563 25.68 29.0782 26.436C28.7002 27.1381 28.1602 27.7861 27.4581 28.3801C26.9181 28.8662 26.3781 29.0822 25.838 29.1902H25.622C25.406 29.1902 25.136 29.1362 24.92 29.0822C24.1099 28.8662 22.7599 28.2721 20.4377 27.0301C18.9796 26.22 17.7376 25.356 16.7115 24.5459C16.1715 24.1139 15.5774 23.6279 15.0374 23.0338L14.8214 22.8178C14.2274 22.2238 13.7413 21.6837 13.3093 21.1437C12.4993 20.1177 11.6352 18.8756 10.8252 17.4175C9.58309 15.1494 8.98906 13.7993 8.77305 12.9352C8.71905 12.7192 8.66504 12.5032 8.66504 12.2332V12.0172C8.71904 11.4771 8.98906 10.9371 9.47509 10.3971C10.0691 9.74904 10.7172 9.20901 11.4192 8.77698C12.1752 8.39896 12.8773 8.50697 13.3633 9.10101C13.3633 9.10101 14.3354 10.2891 14.7674 10.8831C15.1454 11.4232 15.6854 12.2872 16.0095 12.7732C16.4955 13.6373 16.1715 14.5553 15.7395 14.9334L14.7674 15.6894C14.2814 16.0674 14.3354 16.8235 14.3354 16.8235C14.3354 16.8235 15.6855 22.1698 21.0318 23.5739Z" fill="#A200FF"/>
</g>
</g>
</svg>
