<svg width="41" height="41" viewBox="0 0 41 41" fill="none" xmlns="http://www.w3.org/2000/svg">
<g id="Social media logo">
<path id="Vector" fill-rule="evenodd" clip-rule="evenodd" d="M21.9024 5.05394C25.71 5.24107 29.2579 6.81119 31.9678 9.52286C34.8583 12.4152 36.4493 16.2598 36.4477 20.3485C36.4443 28.7857 29.5756 35.6506 21.1379 35.6506C17.9648 35.6506 15.4434 34.6757 13.8153 33.7881L5.69922 35.916L7.87126 27.9864C6.53148 25.6658 5.82649 23.0334 5.82759 20.3363C5.83098 11.8993 12.699 5.03502 21.1377 5.03502L21.9024 5.05394ZM14.1913 31.0179L14.656 31.2935C16.6097 32.4523 18.8492 33.0654 21.1326 33.0663H21.1378C28.1515 33.0663 33.8599 27.3606 33.8627 20.3476C33.864 16.9492 32.5417 13.7536 30.1392 11.3496C27.7366 8.94542 24.5417 7.62066 21.1429 7.61955C14.1238 7.61955 8.41532 13.3247 8.41252 20.3372C8.41157 22.7405 9.08429 25.081 10.3581 27.1059L10.6606 27.5872L9.37514 32.2806L14.1913 31.0179ZM28.8508 23.9873C28.7552 23.8277 28.5003 23.7321 28.1177 23.5407C27.7352 23.3493 25.8544 22.4243 25.5038 22.2966C25.1531 22.1692 24.8981 22.1054 24.6431 22.4881C24.3881 22.8708 23.655 23.7321 23.4317 23.9873C23.2087 24.2424 22.9855 24.2744 22.603 24.083C22.2205 23.8917 20.9879 23.4878 19.5267 22.1852C18.3894 21.1713 17.6217 19.9193 17.3985 19.5365C17.1755 19.1538 17.3747 18.9468 17.5662 18.7562C17.7384 18.5848 17.9489 18.3096 18.1401 18.0863C18.3314 17.8631 18.3951 17.7035 18.5227 17.4484C18.6502 17.1932 18.5864 16.97 18.4908 16.7786C18.3951 16.5871 17.6301 14.7051 17.3113 13.9395C17.0007 13.194 16.6854 13.2949 16.4506 13.2832C16.2277 13.2721 15.9724 13.2697 15.7175 13.2697C15.4624 13.2697 15.048 13.3653 14.6973 13.7482C14.3467 14.1309 13.3584 15.056 13.3584 16.9379C13.3584 18.82 14.7292 20.638 14.9205 20.8932C15.1117 21.1485 17.6179 25.0103 21.4554 26.6666C22.3681 27.0606 23.0806 27.2958 23.6362 27.4721C24.5526 27.7631 25.3865 27.7221 26.0457 27.6236C26.7806 27.5138 28.309 26.6986 28.6277 25.8056C28.9465 24.9123 28.9465 24.1467 28.8508 23.9873Z" fill="#A200FF"/>
</g>
</svg>
